<?xml version="1.0" encoding="UTF-8"?>
<!DOCTYPE svg PUBLIC "-//W3C//DTD SVG 1.1//EN" "http://www.w3.org/Graphics/SVG/1.1/DTD/svg11.dtd">
<!-- Creator: CorelDRAW -->
<svg xmlns="http://www.w3.org/2000/svg" xml:space="preserve" width="52.8618mm" height="45.2184mm" version="1.1" style="shape-rendering:geometricPrecision; text-rendering:geometricPrecision; image-rendering:optimizeQuality; fill-rule:evenodd; clip-rule:evenodd"
viewBox="0 0 1496.5 1280.12"
 xmlns:xlink="http://www.w3.org/1999/xlink"
 xmlns:xodm="http://www.corel.com/coreldraw/odm/2003">
 <defs>
  <style type="text/css">
   <![CDATA[
    .fil0 {fill:#FB0000}
    .fil1 {fill:#FBFB04}
   ]]>
  </style>
 </defs>
 <g id="Слой_x0020_1">
  <metadata id="CorelCorpID_0Corel-Layer"/>
  <path class="fil0" d="M1075.68 797.07c-11.98,1.02 -11.57,-2.29 -27.29,-17.15 -12.69,-12 -65.9,-59.49 -68.52,-65.07 11.98,-10.48 15.77,-5.94 30.99,-10.68l51.48 -20.28c6.95,-2.79 2.14,1.21 8.32,-3.74 1.37,-1.1 3.67,-4.31 4.62,-5.5 19.4,-24.35 15.19,-15.5 30.18,-9.96 11.91,4.41 13.7,-1.07 23.16,18.91 10.2,21.55 3.36,18.49 -2.59,27.75 -14.01,21.79 -13.36,13.12 -26.78,31.26 -37.52,50.72 -14.1,30.22 -23.57,54.46zm-713.27 -405.59c-98.04,0.51 -136.48,-129.25 -66.23,-159.59 -7.93,22.03 -27.14,48.86 -1.47,87.31 11.88,17.79 39.74,44.19 72.69,37.11 0.83,-10.78 -29.32,-88.38 -36.32,-99.71l-20.7 -0.79c-1.87,-14.23 4.51,-12.23 11.49,-25.07 32.95,0.5 39.56,-5.26 44.43,20.72 -5.74,4.17 -3.88,1.01 -10.15,4.09l42.22 97.46c16.84,-0.17 37.48,-25.12 28.54,-47.83 -4.89,-7.43 -6.93,-2.02 -12.83,-11.78l2.85 -5.46c0.21,-0.44 0.46,-0.96 0.67,-1.4 1.45,-3.17 0.74,-3.15 2.75,-6.98 10.15,-0.3 8.63,2.78 13.35,6.38 6.21,4.74 6.4,2.15 14.66,2.77 16.4,1.22 19.04,13.76 13.65,18.51 -5.73,3.36 -9.72,0.47 -17.04,-1.1 2.36,26.09 21.24,50.56 -32.5,77.16 -0.85,8.55 0.87,10.4 3.47,18.57 5.65,17.81 1.42,22.15 -22.16,21.73l-11.81 -32.42 -19.55 0.31zm-178.88 -167.22c11.72,-4.92 23.28,-2.45 30.81,-11.02 6.55,-7.46 11.3,-16.92 21.13,-19.41l10.11 28.06 28.73 5.79c-1.85,9.1 -10.47,9.66 -18.16,21.36 -5.15,7.82 -2.35,23.74 -3,34.82 -13.49,-3.01 -19.53,-11.36 -27.43,-13.75 -8.38,-2.53 -23.61,3.31 -34.47,2.98 1.4,-10.87 9.42,-20.48 6.46,-28.37 -0.91,-2.42 -11.52,-16.05 -14.17,-20.45zm811.82 1055.86l486.84 0c0.97,-67.09 11.47,-68.98 -1.81,-145.61 -3.83,-22.1 -17.33,-22.01 -2.72,-45.34 8.1,-12.93 2.65,-9.34 3.11,-23.23 8.7,-4.15 6.99,0.5 15.73,-5.9 -2.23,-5.92 0.78,-0.55 -5.24,-6.02 -2.27,-2.06 -3.03,-2.55 -5.36,-4.59 -9.7,-8.52 -23.55,-22.56 -34.9,-27.13 -15.5,-6.24 -47.89,-19.06 -63.91,-20.24 -5.01,17.55 5.87,11.25 -0.13,21.5 -6.13,-3.2 -15.22,-20.14 -20.85,-28.13 -18.1,-25.68 -6.51,-9.14 -11.01,-30.67 -0.87,-4.18 -0.31,-2.4 -1.97,-5.06 -5.21,-6.06 -43.12,-1.45 -45.88,-21.11 -13.78,-20.28 -6.97,-26.8 -13.58,-48.12 -3.01,-9.72 -7.99,-11.92 -10.47,-22.05 -9.55,-39.04 -13.51,-16.85 8.39,-51.19 7.31,-11.47 -1.74,-15.92 17.15,-44.91 6.69,-10.26 1.43,-7.87 4.88,-16.79 4.84,-12.49 7.43,2.62 7.43,-34.67 0,-30.09 -5.75,-42.9 -20.36,-63.36 -13.59,-19.05 -20.35,-33.35 -39.23,-44.63l4.94 -13.75c7.23,2.75 5.97,3.2 10.83,7.74 4.5,-2.08 2.93,-1.99 8.27,-3.76 7.93,8.31 16.83,18.12 27.89,14.01 9.16,-24.48 -21.67,-18.7 -29.87,-34.24 -4.01,-7.61 0.61,-19.71 -16.23,-18.59 -15.62,1.04 -6.49,37.28 -78.57,15.36 -28.2,-8.57 -32.23,-5.95 -61.28,-8.52 -2.29,-23.76 13.08,-8.28 -5.52,-34.62 -6.48,-9.18 -16.35,-18.14 -28.83,-20.87 -27.22,-5.94 -48.21,10.02 -65.51,27.7 -6.56,6.7 -2.92,18.14 1.1,24.73 5.56,9.14 3.85,4.97 7.78,16.07 3.35,9.48 6.64,7.41 5.09,18.55 -1.1,7.91 -1.99,2.55 -1.95,10.25 0.04,8.35 1.79,2.03 2,12.29 -9.9,7.91 -14,17.35 -26.51,20.84 -13.83,3.85 -5.38,3.07 -14.66,9.7 -7.19,5.13 -8.96,3.94 -15.72,10.23 -11.8,10.98 -22.52,7.56 -38.02,10.2 -12.65,2.15 -20.42,-10.51 -29.22,-19.01 -33.3,-32.16 -69.87,-62.24 -105.83,-89.91 -18.05,-13.89 -76.07,-73.55 -100.24,-95.44l-204.32 -189.22c-34.25,-32.06 -69.49,-62.8 -102.79,-94.96 -23.88,-23.06 -196.72,-185.18 -205.64,-187.63 -4.49,3.2 -6.04,3.75 -8.79,9.77 4.16,7.43 7.93,6.77 11.3,13.63l15.49 58.34c1.36,11.2 -6.28,27.61 -10.08,37.64 -31.81,83.81 -58,170.42 -90.41,253.31 -19.88,50.85 -39.25,89.92 -53.64,142.01 -3.45,12.49 -7.02,25.98 -11.08,39.21 -3.61,11.76 -16.69,17.96 -24.77,25.11l-6.12 83.92c-7.87,5.3 -13.14,10.38 -19.9,15.34 -0.55,25.43 1.81,49.15 1.85,74.51 0.08,63.78 -11.21,72.07 13.94,134.16 13.4,33.06 6.9,28.87 5.19,63.58 11.36,12.06 68.1,46.59 85.46,57.63l129.89 85.7c25.29,16.12 16.93,13.19 51.64,20.45 26.52,5.54 98.3,21.37 121.78,22.1 4.9,-9.85 7.18,-36.36 9.42,-50.22 3.08,-19.03 35.08,-56.48 45.24,-74.88 6.45,-11.7 13.48,-29.22 18.67,-41.3 37.74,-87.94 37.63,-74.25 108.57,-131.27 11.94,-9.59 15.66,-24.73 21.2,-38.69l51.82 -127.98c10.78,-26.82 19.07,-63 27.5,-92.32 13.18,-45.84 -0.32,-58.71 0.07,-104.26 6.74,3.35 37.92,34.98 46.83,43.87 52.46,52.34 110.01,112.49 163.98,163.58 9.93,9.4 9.53,9.36 14.06,20.22 6.32,15.14 16.22,22.98 31.67,26.01 9.76,1.91 66.73,59.07 75.02,66.72 37.2,34.38 13.29,25.93 36.71,45.14 6.45,5.29 1.94,-1.09 6.32,5.63l-11.49 4.01c-4.48,18.47 -1.19,6.71 2.09,19.96 -6.72,7.58 -11.75,5.77 -17.55,16.95 -10.92,21.01 0.77,32.38 15.89,46.05 4.86,4.39 4.11,3.98 9.34,6.6 8.33,4.18 7.77,1.07 9.27,8.3 -6.24,7.4 -8.63,4.07 -16.24,0.8 -21.17,-9.1 -28.01,0.47 -30.36,22.06 -12.75,2.48 -11.45,2.61 -20.08,8.03 -11.88,7.45 -37.7,-4.55 -41.68,9.56 -2.45,8.69 3.96,4.14 -4.28,9.91 -7.14,5.01 -2.75,-3.8 -9.92,6.4 -4.39,6.25 -5.05,13.59 -4.83,23.23 0.47,20.78 -6.45,9.26 -5.25,23.27 2.69,31.37 3.42,21.85 22.99,34.57 0.34,9.31 -2.17,15.19 0.91,23.04 2.89,7.35 7.7,8.52 12.84,12.91 0.89,9.16 4.32,18 4.23,23.79 -0.14,8.82 -2.38,15.9 -1.76,28.15l20.65 15.13c6.7,5.53 2.87,-1.76 6.09,6.84 -0.3,11.4 -26.92,9.92 -28.73,33.95 -0.87,11.65 1.98,15.99 8.97,21.09l14.79 16.86 -7.96 11.98z"/>
  <path class="fil1" d="M362.41 391.48l19.55 -0.31 11.81 32.42c23.57,0.42 27.81,-3.92 22.16,-21.73 -2.6,-8.18 -4.32,-10.02 -3.47,-18.57 53.74,-26.59 34.86,-51.07 32.5,-77.16 7.32,1.57 11.31,4.46 17.04,1.1 5.38,-4.76 2.75,-17.29 -13.65,-18.51 -8.26,-0.61 -8.45,1.98 -14.66,-2.77 -4.72,-3.6 -3.2,-6.68 -13.35,-6.38 -2.01,3.83 -1.3,3.81 -2.75,6.98 -0.2,0.44 -0.46,0.96 -0.67,1.4l-2.85 5.46c5.89,9.77 7.94,4.35 12.83,11.78 8.95,22.71 -11.69,47.66 -28.54,47.83l-42.22 -97.46c6.27,-3.08 4.41,0.07 10.15,-4.09 -4.87,-25.98 -11.48,-20.22 -44.43,-20.72 -6.98,12.84 -13.36,10.84 -11.49,25.07l20.7 0.79c6.99,11.33 37.15,88.94 36.32,99.71 -32.95,7.08 -60.81,-19.32 -72.69,-37.11 -25.67,-38.45 -6.46,-65.28 1.47,-87.31 -70.25,30.34 -31.81,160.1 66.23,159.59z"/>
  <path class="fil1" d="M183.53 224.26c2.66,4.4 13.27,18.03 14.17,20.45 2.96,7.89 -5.06,17.5 -6.46,28.37 10.86,0.33 26.09,-5.51 34.47,-2.98 7.9,2.39 13.94,10.74 27.43,13.75 0.65,-11.08 -2.15,-27 3,-34.82 7.69,-11.7 16.31,-12.26 18.16,-21.36l-28.73 -5.79 -10.11 -28.06c-9.83,2.5 -14.59,11.95 -21.13,19.41 -7.52,8.57 -19.09,6.1 -30.81,11.02z"/>
 </g>
</svg>
