<?xml version="1.0" encoding="UTF-8"?>
<!DOCTYPE svg PUBLIC "-//W3C//DTD SVG 1.1//EN" "http://www.w3.org/Graphics/SVG/1.1/DTD/svg11.dtd">
<!-- Creator: CorelDRAW -->
<svg xmlns="http://www.w3.org/2000/svg" xml:space="preserve" width="80.7906mm" height="80.7906mm" version="1.1" style="shape-rendering:geometricPrecision; text-rendering:geometricPrecision; image-rendering:optimizeQuality; fill-rule:evenodd; clip-rule:evenodd"
viewBox="0 0 6784.17 6784.17"
 xmlns:xlink="http://www.w3.org/1999/xlink"
 xmlns:xodm="http://www.corel.com/coreldraw/odm/2003">
 <defs>
  <style type="text/css">
   <![CDATA[
    .fil0 {fill:none}
    .fil3 {fill:#FB0000}
    .fil2 {fill:#FBFB04}
    .fil1 {fill:#7C0201;fill-rule:nonzero}
   ]]>
  </style>
 </defs>
 <g id="Слой_x0020_1">
  <metadata id="CorelCorpID_0Corel-Layer"/>
  <path class="fil0" d="M3392.09 0c1873.4,0 3392.09,1518.69 3392.09,3392.09 0,1873.4 -1518.69,3392.09 -3392.09,3392.09 -1873.4,0 -3392.09,-1518.69 -3392.09,-3392.09 0,-1873.4 1518.69,-3392.09 3392.09,-3392.09z"/>
  <path class="fil1" d="M635.45 2719.07l201.68 110.58 15.12 -87.57 125.41 21.66 -74.52 431.57 -560.48 -96.78 21.66 -125.41 95.28 16.46 28.79 -166.74 -95.28 -16.46 21.66 -125.41 220.69 38.11zm-22.87 132.42l-27.58 159.73 214.38 37.02 16.81 -97.38 -203.62 -99.37zm16.77 825.65l1.23 62.54 -286.47 5.61 -2.49 -127.23 159.93 -3.13 -3.9 -199.75 -159.94 3.13 -2.49 -127.23 568.67 -11.13 2.49 127.23 -281.49 5.51 2.16 110.19 281.95 54.21 2.62 133.63 -281.95 -54.22 0.4 20.62 -0.71 0.02zm-57.02 508.15l424.31 -122.04 35.18 122.31 -424.3 122.04 26.13 90.87 -122.31 35.18 -147.98 -514.51 546.62 -157.21 35.18 122.31 -424.3 122.04 51.48 179.02zm71.33 544.69l-59.04 -112.73 503.86 -263.87 59.04 112.73 -381.04 199.56 138.42 140.18 330.04 -172.84 59.04 112.74 -503.86 263.88 -59.05 -112.74 51.02 -26.72 -138.43 -140.19zm966.72 405.36l-430.75 371.43 -83.1 -96.38 180.37 -155.54 -77.54 -89.92 -213.26 116.3 -87.28 -101.22 213.26 -116.31 -48.75 -56.53 250.37 -215.9 296.68 344.06zm-237.63 36.87l58.15 -50.14 -130.47 -151.31 -58.15 50.15 130.47 151.3zm120.74 269.22l117.82 101.78 -60.42 69.94 -117.82 -101.78 60.42 -69.94zm199.61 491.59l-107.43 -68.21 304.85 -480.18 107.44 68.21 -230.55 363.14 189.93 52.37 199.69 -314.52 107.44 68.21 -304.86 480.18 -107.44 -68.21 30.87 -48.62 -189.93 -52.37zm424.42 253.45l183.86 -537.49 421.11 144.05 -41.19 120.41 -300.7 -102.86 -101.72 297.33 300.7 102.87 -40.96 119.74 -421.11 -144.05zm574.88 195.6l74.69 -563.14 441.21 58.52 -16.74 126.16 -315.05 -41.79 -41.32 311.53 315.05 41.78 -16.63 125.45 -441.21 -58.52zm915.05 58.81l-33.44 -440.24 -87.21 6.63 -63.63 223.01 16.96 223.31 -122.65 9.32 -16.96 -223.32 57.96 -222.58 -88.61 6.73 -9.64 -126.9 431.03 -32.74 43.08 567.14 -126.9 9.64zm317.77 -21.62l-157.05 -545.92 457.78 -131.69 41.17 356.57 -278.77 80.2 24.18 84.04 306.1 -88.06 34.99 121.63 -428.4 123.24zm27.95 -363.15l170.82 -49.14 -11.81 -100.18 -186.53 53.66 27.52 95.66zm933.33 3.85l-235.55 123.36 36.28 69.28 -108.96 57.07 -95.33 -182.02 56.06 -29.37 -250.82 -367.03 404.35 -211.76 204.83 391.12 47.24 -24.74 94.7 182.35 -116.52 61.02 -36.28 -69.28zm-101.87 -90.32l-145.79 -278.39 -162.49 85.11 180.43 260.24 127.86 -66.96zm357.55 -49.17l-374.36 -428.22 364.52 -318.67 374.36 428.22 -364.52 318.67zm184.95 -330.72l-206.83 -236.59 -172.9 151.15 206.83 236.59 172.9 -151.15zm148.04 -808.54l173.03 137.66 5 83.93 72.89 -21.97 187.5 149.17 -0.45 0.55 0.56 0.45 -277.52 348.85 -445.11 -354.1 277.52 -348.85 6.12 4.86 0.45 -0.55zm153.06 344.35l-90.3 113.5 77.89 61.97 113.31 -142.44 -50.63 -40.27 -50.28 7.25zm-99.59 -79.23l-5.37 -51.52 -40.05 -31.87 -113.31 142.43 68.44 54.45 90.3 -113.5zm288.38 -180.19l-158.77 -166.42 -40.91 78.89 -112.98 -58.58 201.6 -388.81 504.93 261.82 -58.58 112.98 -85.84 -44.51 -77.88 150.22 85.84 44.51 -58.59 112.98 -198.81 -103.08zm61.85 -119.29l74.61 -143.91 -193.14 -100.14 -45.49 87.73 164.01 156.32zm-20.29 -927.73l546.23 158.54 -35.47 122.23 -269.02 -78.09 -55.3 190.5 269.02 78.08 -35.47 122.22 -546.24 -158.55 35.48 -122.21 154.99 44.98 55.29 -190.5 -154.99 -44.98 35.48 -122.22zm582.85 -145.37l-2.51 127.23 -568.67 -11.22 2.51 -127.23 430.06 8.48 -53.86 -189.51 -372.48 -7.35 2.51 -127.24 568.66 11.22 -2.51 127.24 -57.57 -1.13 53.86 189.51zm14.01 -494.4l-559.78 96.65 -81.05 -469.4 358.94 -2.1 49.36 285.85 86.17 -14.88 -54.2 -313.87 124.71 -21.53 75.85 439.28zm-357.94 -67.34l-30.25 -175.16 -100.87 0.83 33.03 191.26 98.09 -16.94z"/>
  <g id="_2372727065680">
   <polygon class="fil2" points="1801.26,1777.29 2446.42,2342.21 2677.8,1819.55 2106.15,1411.21 1880.21,1550.04 "/>
   <path class="fil3" d="M4135.71 3077.21c-30.58,2.6 -29.54,-5.84 -69.66,-43.77 -32.39,-30.63 -168.25,-151.87 -174.93,-166.11 30.57,-26.77 40.26,-15.17 79.11,-27.27l131.42 -51.77c17.76,-7.13 5.46,3.11 21.24,-9.55 3.51,-2.82 9.37,-11 11.8,-14.05 49.53,-62.17 38.78,-39.56 77.04,-25.41 30.41,11.24 34.98,-2.75 59.13,48.28 26.04,55.01 8.59,47.2 -6.61,70.84 -35.76,55.62 -34.1,33.5 -68.36,79.79 -95.8,129.48 -36,77.15 -60.17,139.02zm-1820.91 -1035.42c-250.29,1.29 -348.43,-329.96 -169.09,-407.42 -20.24,56.24 -69.29,124.74 -3.75,222.89 30.32,45.4 101.46,112.8 185.57,94.72 2.12,-27.51 -74.85,-225.63 -92.71,-254.55l-52.85 -2.02c-4.77,-36.32 11.5,-31.22 29.33,-64 84.11,1.28 100.99,-13.42 113.42,52.9 -14.66,10.64 -9.92,2.59 -25.92,10.45l107.78 248.82c42.99,-0.44 95.69,-64.12 72.85,-122.1 -12.49,-18.97 -17.7,-5.14 -32.74,-30.08l7.27 -13.92c0.54,-1.12 1.18,-2.44 1.7,-3.56 3.7,-8.09 1.88,-8.04 7.02,-17.84 25.9,-0.76 22.03,7.09 34.07,16.29 15.85,12.12 16.34,5.5 37.43,7.07 41.87,3.12 48.6,35.13 34.86,47.27 -14.62,8.57 -24.81,1.18 -43.5,-2.82 6.03,66.61 54.22,129.08 -82.97,196.97 -2.17,21.83 2.22,26.54 8.85,47.42 14.43,45.46 3.61,56.55 -56.56,55.46l-30.13 -82.75 -49.92 0.79zm-456.67 -426.91c29.92,-12.56 59.44,-6.24 78.65,-28.13 16.71,-19.04 28.84,-43.18 53.94,-49.56l25.8 71.64 73.35 14.77c-4.72,23.23 -26.72,24.66 -46.36,54.53 -13.13,19.96 -6,60.6 -7.66,88.88 -34.45,-7.7 -49.87,-29.01 -70.03,-35.11 -21.38,-6.47 -60.28,8.44 -87.99,7.61 3.58,-27.74 24.03,-52.28 16.48,-72.42 -2.32,-6.16 -29.41,-40.97 -36.18,-52.21zm2072.48 2695.5l1242.85 0c2.48,-171.28 29.29,-176.09 -4.62,-371.73 -9.78,-56.42 -44.25,-56.19 -6.95,-115.76 20.67,-33.01 6.78,-23.85 7.96,-59.29 22.2,-10.6 17.85,1.28 40.16,-15.07 -5.69,-15.12 1.99,-1.41 -13.37,-15.38 -5.79,-5.27 -7.74,-6.52 -13.69,-11.73 -24.78,-21.75 -60.12,-57.59 -89.09,-69.26 -39.57,-15.94 -122.26,-48.65 -163.17,-51.68 -12.79,44.8 14.98,28.72 -0.34,54.89 -15.65,-8.17 -38.85,-51.4 -53.23,-71.81 -46.22,-65.55 -16.63,-23.32 -28.11,-78.28 -2.23,-10.66 -0.81,-6.12 -5.03,-12.92 -13.3,-15.46 -110.09,-3.7 -117.12,-53.9 -35.18,-51.78 -17.79,-68.4 -34.66,-122.83 -7.69,-24.81 -20.39,-30.42 -26.71,-56.3 -24.39,-99.65 -34.48,-43.02 21.4,-130.69 18.67,-29.29 -4.45,-40.65 43.77,-114.64 17.07,-26.2 3.65,-20.09 12.47,-42.88 12.34,-31.88 18.95,6.68 18.95,-88.51 0,-76.83 -14.68,-109.51 -51.96,-161.76 -34.71,-48.63 -51.95,-85.13 -100.16,-113.93l12.6 -35.09c18.47,7.03 15.24,8.18 27.64,19.76 11.48,-5.32 7.48,-5.07 21.1,-9.6 20.25,21.23 42.96,46.27 71.2,35.77 23.38,-62.5 -55.33,-47.75 -76.26,-87.42 -10.25,-19.41 1.55,-50.32 -41.44,-47.45 -39.87,2.65 -16.58,95.16 -200.59,39.22 -71.99,-21.87 -82.28,-15.19 -156.44,-21.75 -5.84,-60.65 33.4,-21.14 -14.09,-88.38 -16.55,-23.43 -41.73,-46.31 -73.59,-53.27 -69.5,-15.17 -123.06,25.58 -167.23,70.71 -16.75,17.12 -7.45,46.3 2.8,63.13 14.2,23.34 9.82,12.69 19.85,41.04 8.57,24.19 16.96,18.91 13,47.34 -2.8,20.19 -5.08,6.52 -4.98,26.17 0.09,21.32 4.57,5.17 5.11,31.38 -25.28,20.19 -35.75,44.3 -67.68,53.2 -35.3,9.83 -13.75,7.83 -37.43,24.75 -18.34,13.11 -22.88,10.08 -40.13,26.12 -30.12,28.01 -57.5,19.29 -97.06,26.02 -32.29,5.51 -52.12,-26.83 -74.59,-48.54 -85.01,-82.1 -178.37,-158.88 -270.17,-229.52 -46.08,-35.44 -194.19,-187.77 -255.9,-243.65l-521.6 -483.06c-87.43,-81.86 -177.39,-160.32 -262.42,-242.42 -60.98,-58.88 -502.2,-472.76 -524.98,-479 -11.45,8.18 -15.43,9.56 -22.45,24.94 10.63,18.98 20.24,17.27 28.84,34.81l39.54 148.94c3.46,28.6 -16.02,70.49 -25.74,96.09 -81.2,213.95 -148.07,435.06 -230.81,646.66 -50.76,129.81 -100.21,229.56 -136.95,362.54 -8.81,31.89 -17.92,66.34 -28.29,100.09 -9.22,30.03 -42.62,45.84 -63.22,64.11l-15.63 214.23c-20.09,13.54 -33.55,26.52 -50.8,39.17 -1.42,64.91 4.64,125.46 4.72,190.22 0.21,162.84 -28.63,184 35.59,342.51 34.19,84.41 17.62,73.7 13.24,162.31 29,30.78 173.85,118.96 218.17,147.14l331.58 218.77c64.56,41.16 43.23,33.68 131.83,52.2 67.72,14.15 250.96,54.56 310.89,56.41 12.51,-25.16 18.34,-92.81 24.06,-128.2 7.85,-48.58 89.56,-144.16 115.48,-191.17 16.48,-29.87 34.43,-74.58 47.66,-105.42 96.34,-224.51 96.07,-189.55 277.16,-335.12 30.48,-24.49 39.98,-63.15 54.12,-98.78l132.28 -326.72c27.53,-68.47 48.69,-160.82 70.22,-235.69 33.66,-117.03 -0.81,-149.89 0.17,-266.17 17.2,8.55 96.8,89.31 119.54,111.99 133.92,133.63 280.85,287.15 418.62,417.6 25.35,24 24.32,23.92 35.89,51.63 16.13,38.66 41.4,58.68 80.84,66.4 24.91,4.87 170.36,150.78 191.52,170.33 94.96,87.76 33.94,66.2 93.72,115.24 16.47,13.5 4.95,-2.79 16.14,14.38l-29.32 10.24c-11.44,47.16 -3.04,17.13 5.33,50.95 -17.15,19.36 -29.99,14.74 -44.82,43.28 -27.87,53.64 1.97,82.66 40.58,117.56 12.4,11.21 10.5,10.16 23.85,16.84 21.26,10.67 19.83,2.74 23.67,21.19 -15.94,18.89 -22.03,10.4 -41.47,2.04 -54.04,-23.23 -71.49,1.2 -77.51,56.32 -32.54,6.34 -29.24,6.67 -51.27,20.49 -30.31,19.02 -96.24,-11.61 -106.39,24.39 -6.26,22.2 10.1,10.56 -10.93,25.3 -18.23,12.78 -7.03,-9.7 -25.33,16.32 -11.21,15.95 -12.9,34.7 -12.33,59.31 1.2,53.04 -16.47,23.62 -13.39,59.39 6.87,80.08 8.72,55.77 58.69,88.26 0.86,23.78 -5.55,38.8 2.32,58.82 7.38,18.77 19.67,21.75 32.77,32.97 2.28,23.39 11.02,45.97 10.78,60.72 -0.36,22.53 -6.07,40.6 -4.49,71.86l52.73 38.63c17.11,14.11 7.32,-4.48 15.55,17.46 -0.76,29.1 -68.73,25.33 -73.34,86.68 -2.23,29.74 5.04,40.82 22.9,53.84l37.77 43.05 -20.33 30.59z"/>
  </g>
 </g>
</svg>
